<mxfile host="app.diagrams.net" modified="2023-12-19T13:48:39.030Z" agent="Mozilla/5.0 (Windows NT 10.0; Win64; x64) AppleWebKit/537.36 (KHTML, like Gecko) Chrome/120.0.0.0 Safari/537.36" etag="Wo4b_oSOb11fmqvv9-Mp" version="21.8.1" type="device">
  <diagram name="Page-1" id="WMIqsMFZFi27ppfSe4C-">
    <mxGraphModel dx="880" dy="498" grid="1" gridSize="10" guides="1" tooltips="1" connect="1" arrows="1" fold="1" page="1" pageScale="1" pageWidth="850" pageHeight="1100" math="0" shadow="0">
      <root>
        <mxCell id="0" />
        <mxCell id="1" parent="0" />
        <mxCell id="P_VvSyPYkRtTuopRqvUZ-6" style="edgeStyle=orthogonalEdgeStyle;rounded=0;orthogonalLoop=1;jettySize=auto;html=1;" edge="1" parent="1" source="bnpYZqFo9KLJwljTuqDl-1">
          <mxGeometry relative="1" as="geometry">
            <mxPoint x="450" y="220" as="targetPoint" />
          </mxGeometry>
        </mxCell>
        <mxCell id="bnpYZqFo9KLJwljTuqDl-1" value="internsctl memory&lt;br&gt;getinfo " style="rounded=0;whiteSpace=wrap;html=1;" parent="1" vertex="1">
          <mxGeometry x="490" y="120" width="120" height="60" as="geometry" />
        </mxCell>
        <mxCell id="P_VvSyPYkRtTuopRqvUZ-1" value="" style="edgeStyle=orthogonalEdgeStyle;rounded=0;orthogonalLoop=1;jettySize=auto;html=1;" edge="1" parent="1" source="bnpYZqFo9KLJwljTuqDl-2" target="bnpYZqFo9KLJwljTuqDl-1">
          <mxGeometry relative="1" as="geometry" />
        </mxCell>
        <mxCell id="P_VvSyPYkRtTuopRqvUZ-3" style="edgeStyle=orthogonalEdgeStyle;rounded=0;orthogonalLoop=1;jettySize=auto;html=1;entryX=0.5;entryY=0;entryDx=0;entryDy=0;" edge="1" parent="1" source="bnpYZqFo9KLJwljTuqDl-2" target="P_VvSyPYkRtTuopRqvUZ-2">
          <mxGeometry relative="1" as="geometry" />
        </mxCell>
        <mxCell id="bnpYZqFo9KLJwljTuqDl-2" value="Internsctl script" style="rounded=0;whiteSpace=wrap;html=1;" parent="1" vertex="1">
          <mxGeometry x="360" y="20" width="120" height="60" as="geometry" />
        </mxCell>
        <mxCell id="P_VvSyPYkRtTuopRqvUZ-5" style="edgeStyle=orthogonalEdgeStyle;rounded=0;orthogonalLoop=1;jettySize=auto;html=1;" edge="1" parent="1" source="P_VvSyPYkRtTuopRqvUZ-2">
          <mxGeometry relative="1" as="geometry">
            <mxPoint x="390" y="220" as="targetPoint" />
          </mxGeometry>
        </mxCell>
        <mxCell id="P_VvSyPYkRtTuopRqvUZ-2" value="internsctl cpu &lt;br&gt;#getinfo " style="rounded=0;whiteSpace=wrap;html=1;" vertex="1" parent="1">
          <mxGeometry x="230" y="120" width="120" height="60" as="geometry" />
        </mxCell>
        <mxCell id="P_VvSyPYkRtTuopRqvUZ-7" style="edgeStyle=orthogonalEdgeStyle;rounded=0;orthogonalLoop=1;jettySize=auto;html=1;" edge="1" parent="1" source="P_VvSyPYkRtTuopRqvUZ-4">
          <mxGeometry relative="1" as="geometry">
            <mxPoint x="420" y="350" as="targetPoint" />
          </mxGeometry>
        </mxCell>
        <mxCell id="P_VvSyPYkRtTuopRqvUZ-4" value="create&lt;br&gt;list&lt;br&gt;--sudo-only" style="rounded=0;whiteSpace=wrap;html=1;" vertex="1" parent="1">
          <mxGeometry x="360" y="230" width="120" height="60" as="geometry" />
        </mxCell>
        <mxCell id="P_VvSyPYkRtTuopRqvUZ-8" value="get info&lt;br&gt;--size&lt;br&gt;--permission&lt;br&gt;--owner&lt;br&gt;--last-modified" style="whiteSpace=wrap;html=1;aspect=fixed;" vertex="1" parent="1">
          <mxGeometry x="360" y="350" width="120" height="120" as="geometry" />
        </mxCell>
      </root>
    </mxGraphModel>
  </diagram>
</mxfile>
